<svg aria-hidden="true" style="position: absolute; width: 0; height: 0; overflow: hidden;" version="1.1" xmlns="http://www.w3.org/2000/svg" xmlns:xlink="http://www.w3.org/1999/xlink">
    <defs>
        <symbol id="icon-cup-hot" viewBox="0 0 16 16">
            <path d="M0.5 6c-0.075 0-0.149 0.017-0.216 0.049s-0.127 0.080-0.174 0.138c-0.047 0.058-0.080 0.126-0.097 0.199s-0.017 0.149-0.001 0.222l1.652 7.434c0.123 0.555 0.432 1.052 0.876 1.408s0.995 0.55 1.564 0.55h5.792c0.569-0 1.12-0.194 1.564-0.55s0.753-0.853 0.876-1.408l0.131-0.59c0.765 0.143 1.556-0.017 2.205-0.446s1.107-1.093 1.275-1.853c0.169-0.76 0.036-1.555-0.371-2.219s-1.055-1.143-1.809-1.337l0.221-0.99c0.016-0.073 0.016-0.149-0.001-0.222s-0.050-0.141-0.097-0.199c-0.047-0.058-0.106-0.105-0.174-0.138s-0.141-0.049-0.216-0.049h-13zM13 12.5c-0.106 0-0.211-0.008-0.316-0.025l0.867-3.898c0.463 0.134 0.861 0.43 1.123 0.834s0.369 0.889 0.302 1.366c-0.067 0.477-0.304 0.914-0.667 1.23s-0.828 0.491-1.309 0.493zM2.64 13.825l-1.517-6.825h11.754l-1.517 6.825c-0.074 0.333-0.259 0.631-0.525 0.845s-0.597 0.33-0.939 0.33h-5.792c-0.341-0-0.672-0.117-0.939-0.33s-0.452-0.512-0.525-0.845z"></path>
            <path d="M4.4 0.8l-0.003 0.004-0.014 0.019c-0.073 0.1-0.141 0.204-0.204 0.31-0.054 0.085-0.101 0.175-0.141 0.267-0.026 0.060-0.034 0.092-0.037 0.103v0.004c0.012 0.088 0.043 0.173 0.091 0.248 0.075 0.133 0.178 0.272 0.308 0.445l0.010 0.012c0.118 0.158 0.26 0.347 0.37 0.543 0.112 0.2 0.22 0.455 0.22 0.745 0 0.188-0.065 0.368-0.119 0.494-0.058 0.134-0.125 0.264-0.202 0.388-0.078 0.131-0.163 0.259-0.253 0.382l-0.018 0.025-0.005 0.008-0.002 0.002c-0.079 0.106-0.198 0.177-0.329 0.195s-0.265-0.015-0.371-0.094c-0.106-0.079-0.177-0.198-0.195-0.329s0.015-0.265 0.094-0.371l0.003-0.004 0.014-0.019c0.073-0.1 0.141-0.204 0.204-0.31 0.054-0.085 0.101-0.175 0.141-0.267 0.026-0.060 0.034-0.092 0.037-0.103-0.011-0.090-0.041-0.176-0.090-0.252-0.093-0.155-0.196-0.304-0.309-0.445l-0.010-0.012c-0.135-0.173-0.259-0.354-0.37-0.543-0.136-0.225-0.212-0.482-0.22-0.745 0-0.188 0.065-0.368 0.119-0.494 0.059-0.138 0.134-0.274 0.202-0.388 0.079-0.131 0.164-0.258 0.253-0.382l0.025-0.035c0.079-0.106 0.198-0.177 0.329-0.195s0.265 0.015 0.371 0.094c0.106 0.079 0.177 0.198 0.195 0.329s-0.015 0.265-0.094 0.371zM7.4 0.8l-0.003 0.004-0.014 0.019c-0.073 0.1-0.141 0.204-0.204 0.31-0.054 0.085-0.101 0.175-0.141 0.267-0.026 0.060-0.034 0.092-0.037 0.103v0.004c0.012 0.088 0.043 0.173 0.091 0.248 0.075 0.133 0.178 0.272 0.308 0.445l0.010 0.012c0.118 0.158 0.26 0.347 0.37 0.543 0.112 0.2 0.22 0.455 0.22 0.745 0 0.188-0.065 0.368-0.119 0.494-0.058 0.134-0.125 0.264-0.202 0.388-0.078 0.131-0.163 0.259-0.253 0.382l-0.018 0.025-0.005 0.008-0.002 0.002c-0.079 0.106-0.198 0.177-0.329 0.195s-0.265-0.015-0.371-0.094-0.177-0.198-0.195-0.329c-0.019-0.131 0.015-0.265 0.094-0.371l0.003-0.004 0.014-0.019c0.073-0.1 0.141-0.204 0.204-0.31 0.054-0.085 0.101-0.175 0.141-0.267 0.026-0.060 0.034-0.092 0.037-0.103-0.011-0.090-0.041-0.176-0.090-0.252-0.093-0.155-0.196-0.304-0.309-0.445l-0.010-0.012c-0.135-0.173-0.259-0.354-0.37-0.543-0.136-0.225-0.212-0.482-0.22-0.745 0-0.188 0.065-0.368 0.119-0.494 0.059-0.138 0.134-0.274 0.202-0.388 0.079-0.131 0.164-0.258 0.253-0.382l0.025-0.035c0.079-0.106 0.198-0.177 0.329-0.195s0.265 0.015 0.371 0.094 0.177 0.198 0.195 0.329c0.019 0.131-0.015 0.265-0.094 0.371zM10.4 0.8l-0.003 0.004-0.014 0.019c-0.073 0.1-0.141 0.204-0.204 0.31-0.054 0.085-0.101 0.175-0.141 0.267-0.026 0.060-0.034 0.092-0.037 0.103v0.004c0.012 0.088 0.043 0.173 0.091 0.248 0.075 0.133 0.178 0.272 0.308 0.445l0.010 0.012c0.118 0.158 0.26 0.347 0.37 0.543 0.112 0.2 0.22 0.455 0.22 0.745 0 0.188-0.065 0.368-0.119 0.494-0.058 0.134-0.125 0.264-0.202 0.388-0.078 0.131-0.162 0.259-0.252 0.382l-0.019 0.025-0.005 0.008-0.002 0.002c-0.079 0.106-0.198 0.177-0.329 0.195s-0.265-0.015-0.371-0.094-0.177-0.198-0.195-0.329c-0.019-0.131 0.015-0.265 0.094-0.371l0.003-0.004 0.014-0.019c0.073-0.1 0.141-0.204 0.204-0.31 0.054-0.085 0.101-0.175 0.141-0.267 0.026-0.060 0.034-0.092 0.037-0.103-0.011-0.090-0.041-0.176-0.090-0.252-0.093-0.155-0.196-0.304-0.309-0.445l-0.010-0.012c-0.135-0.173-0.259-0.354-0.37-0.543-0.136-0.225-0.212-0.482-0.22-0.745 0-0.188 0.065-0.368 0.119-0.494 0.059-0.138 0.134-0.274 0.202-0.388 0.079-0.131 0.164-0.258 0.253-0.382l0.025-0.035c0.079-0.106 0.198-0.177 0.329-0.195s0.265 0.015 0.371 0.094 0.177 0.198 0.195 0.329c0.019 0.131-0.015 0.265-0.094 0.371z"></path>
        </symbol>
        <symbol id="icon-diagram" viewBox="0 0 21 16">
            <path d="M8 2c0-0.53 0.211-1.039 0.586-1.414s0.884-0.586 1.414-0.586h1.333c0.53 0 1.039 0.211 1.414 0.586s0.586 0.884 0.586 1.414v1.333c0 0.53-0.211 1.039-0.586 1.414s-0.884 0.586-1.414 0.586v1.333h7.333c0.177 0 0.346 0.070 0.471 0.195s0.195 0.295 0.195 0.471v1.333c0 0.177-0.070 0.346-0.195 0.471s-0.295 0.195-0.471 0.195c-0.177 0-0.346-0.070-0.471-0.195s-0.195-0.295-0.195-0.471v-0.667h-6.667v0.667c0 0.177-0.070 0.346-0.195 0.471s-0.295 0.195-0.471 0.195c-0.177 0-0.346-0.070-0.471-0.195s-0.195-0.295-0.195-0.471v-0.667h-6.667v0.667c0 0.177-0.070 0.346-0.195 0.471s-0.295 0.195-0.471 0.195c-0.177 0-0.346-0.070-0.471-0.195s-0.195-0.295-0.195-0.471v-1.333c0-0.177 0.070-0.346 0.195-0.471s0.295-0.195 0.471-0.195h7.333v-1.333c-0.53 0-1.039-0.211-1.414-0.586s-0.586-0.884-0.586-1.414v-1.333zM11.333 4c0.177 0 0.346-0.070 0.471-0.195s0.195-0.295 0.195-0.471v-1.333c0-0.177-0.070-0.346-0.195-0.471s-0.295-0.195-0.471-0.195h-1.333c-0.177 0-0.346 0.070-0.471 0.195s-0.195 0.295-0.195 0.471v1.333c0 0.177 0.070 0.346 0.195 0.471s0.295 0.195 0.471 0.195h1.333zM0 12.667c0-0.53 0.211-1.039 0.586-1.414s0.884-0.586 1.414-0.586h1.333c0.53 0 1.039 0.211 1.414 0.586s0.586 0.884 0.586 1.414v1.333c0 0.53-0.211 1.039-0.586 1.414s-0.884 0.586-1.414 0.586h-1.333c-0.53 0-1.039-0.211-1.414-0.586s-0.586-0.884-0.586-1.414v-1.333zM2 12c-0.177 0-0.346 0.070-0.471 0.195s-0.195 0.295-0.195 0.471v1.333c0 0.177 0.070 0.346 0.195 0.471s0.295 0.195 0.471 0.195h1.333c0.177 0 0.346-0.070 0.471-0.195s0.195-0.295 0.195-0.471v-1.333c0-0.177-0.070-0.346-0.195-0.471s-0.295-0.195-0.471-0.195h-1.333zM8 12.667c0-0.53 0.211-1.039 0.586-1.414s0.884-0.586 1.414-0.586h1.333c0.53 0 1.039 0.211 1.414 0.586s0.586 0.884 0.586 1.414v1.333c0 0.53-0.211 1.039-0.586 1.414s-0.884 0.586-1.414 0.586h-1.333c-0.53 0-1.039-0.211-1.414-0.586s-0.586-0.884-0.586-1.414v-1.333zM10 12c-0.177 0-0.346 0.070-0.471 0.195s-0.195 0.295-0.195 0.471v1.333c0 0.177 0.070 0.346 0.195 0.471s0.295 0.195 0.471 0.195h1.333c0.177 0 0.346-0.070 0.471-0.195s0.195-0.295 0.195-0.471v-1.333c0-0.177-0.070-0.346-0.195-0.471s-0.295-0.195-0.471-0.195h-1.333zM16 12.667c0-0.53 0.211-1.039 0.586-1.414s0.884-0.586 1.414-0.586h1.333c0.53 0 1.039 0.211 1.414 0.586s0.586 0.884 0.586 1.414v1.333c0 0.53-0.211 1.039-0.586 1.414s-0.884 0.586-1.414 0.586h-1.333c-0.53 0-1.039-0.211-1.414-0.586s-0.586-0.884-0.586-1.414v-1.333zM18 12c-0.177 0-0.346 0.070-0.471 0.195s-0.195 0.295-0.195 0.471v1.333c0 0.177 0.070 0.346 0.195 0.471s0.295 0.195 0.471 0.195h1.333c0.177 0 0.346-0.070 0.471-0.195s0.195-0.295 0.195-0.471v-1.333c0-0.177-0.070-0.346-0.195-0.471s-0.295-0.195-0.471-0.195h-1.333z"></path>
        </symbol>
        <symbol id="icon-fridge" viewBox="0 0 13 16">
            <path d="M10.489 4.444c0-0.141-0.056-0.277-0.156-0.377s-0.236-0.156-0.377-0.156c-0.142 0-0.277 0.056-0.377 0.156s-0.156 0.236-0.156 0.377v1.422c0 0.141 0.056 0.277 0.156 0.377s0.236 0.156 0.377 0.156c0.141 0 0.277-0.056 0.377-0.156s0.156-0.236 0.156-0.377v-1.422zM10.489 9.422c0-0.141-0.056-0.277-0.156-0.377s-0.236-0.156-0.377-0.156c-0.142 0-0.277 0.056-0.377 0.156s-0.156 0.236-0.156 0.377v1.422c0 0.141 0.056 0.277 0.156 0.377s0.236 0.156 0.377 0.156c0.141 0 0.277-0.056 0.377-0.156s0.156-0.236 0.156-0.377v-1.422z"></path>
            <path d="M6.44 0.356h-0.080c-1.307 0-2.342 0-3.152 0.109-0.833 0.112-1.508 0.348-2.041 0.88s-0.768 1.207-0.88 2.041c-0.109 0.811-0.109 1.845-0.109 3.152v2.213c0 1.307 0 2.342 0.109 3.152 0.112 0.833 0.348 1.508 0.88 2.041 0.327 0.326 0.707 0.541 1.144 0.685v0.482c0 0.294 0.239 0.533 0.533 0.533h0.711c0.141 0 0.277-0.056 0.377-0.156s0.156-0.236 0.156-0.377v-0.21c0.645 0.033 1.397 0.033 2.271 0.033h0.080c0.875 0 1.626 0 2.271-0.033v0.21c0 0.294 0.239 0.533 0.533 0.533h0.711c0.141 0 0.277-0.056 0.377-0.156s0.156-0.236 0.156-0.377v-0.482c0.437-0.144 0.818-0.358 1.144-0.685 0.532-0.533 0.768-1.207 0.88-2.041 0.109-0.811 0.109-1.845 0.109-3.152v-2.212c0-1.307 0-2.342-0.109-3.152-0.112-0.833-0.348-1.508-0.88-2.041s-1.207-0.768-2.041-0.88c-0.811-0.109-1.845-0.109-3.152-0.109zM1.921 2.099c0.301-0.301 0.713-0.481 1.429-0.577 0.731-0.098 1.694-0.1 3.050-0.1s2.32 0.001 3.051 0.1c0.715 0.096 1.127 0.277 1.428 0.577s0.481 0.713 0.577 1.429c0.098 0.731 0.1 1.694 0.1 3.050v0.533h-10.311v-0.533c0-1.356 0.001-2.319 0.1-3.051 0.096-0.715 0.277-1.127 0.577-1.428zM1.244 8.178h10.311v0.533c0 1.356-0.001 2.32-0.1 3.051-0.096 0.715-0.277 1.127-0.577 1.428s-0.713 0.481-1.429 0.577c-0.731 0.098-1.694 0.1-3.050 0.1s-2.319-0.001-3.051-0.1c-0.715-0.096-1.127-0.277-1.428-0.577s-0.481-0.713-0.577-1.429c-0.098-0.73-0.1-1.694-0.1-3.050v-0.533z"></path>
        </symbol>
        <symbol id="icon-gas-station" viewBox="0 0 16 16">
            <path d="M3 2.5c0-0.133 0.053-0.26 0.146-0.354s0.221-0.146 0.354-0.146h5c0.133 0 0.26 0.053 0.354 0.146s0.146 0.221 0.146 0.354v5c0 0.133-0.053 0.26-0.146 0.354s-0.221 0.146-0.354 0.146h-5c-0.133 0-0.26-0.053-0.354-0.146s-0.146-0.221-0.146-0.354v-5z"></path>
            <path d="M1 2c0-0.53 0.211-1.039 0.586-1.414s0.884-0.586 1.414-0.586h6c0.53 0 1.039 0.211 1.414 0.586s0.586 0.884 0.586 1.414v8c0.53 0 1.039 0.211 1.414 0.586s0.586 0.884 0.586 1.414v0.5c0 0.133 0.053 0.26 0.146 0.354s0.221 0.146 0.354 0.146 0.26-0.053 0.354-0.146c0.094-0.094 0.146-0.221 0.146-0.354v-4.5h-0.5c-0.133 0-0.26-0.053-0.354-0.146s-0.146-0.221-0.146-0.354v-3.125c0-0.133 0.053-0.26 0.146-0.354s0.221-0.146 0.354-0.146h1.495c-0.011-0.476-0.053-0.894-0.201-1.222-0.079-0.191-0.217-0.351-0.394-0.458-0.184-0.11-0.464-0.195-0.9-0.195-0.133 0-0.26-0.053-0.354-0.146s-0.146-0.221-0.146-0.354 0.053-0.26 0.146-0.354c0.094-0.094 0.221-0.146 0.354-0.146 0.564-0.001 1.035 0.111 1.412 0.336 0.383 0.228 0.634 0.551 0.794 0.907 0.295 0.655 0.294 1.465 0.294 2.081v3.175c0 0.066-0.013 0.131-0.038 0.192s-0.062 0.116-0.108 0.163c-0.046 0.047-0.102 0.083-0.162 0.109s-0.126 0.038-0.192 0.038h-0.5v4.5c0 0.398-0.158 0.779-0.439 1.061s-0.663 0.439-1.061 0.439-0.779-0.158-1.061-0.439c-0.281-0.281-0.439-0.663-0.439-1.061v-0.5c0-0.265-0.105-0.52-0.293-0.707s-0.442-0.293-0.707-0.293v4h0.5c0.133 0 0.26 0.053 0.354 0.146s0.146 0.221 0.146 0.354-0.053 0.26-0.146 0.354c-0.094 0.094-0.221 0.146-0.354 0.146h-11c-0.133 0-0.26-0.053-0.354-0.146s-0.146-0.221-0.146-0.354 0.053-0.26 0.146-0.354c0.094-0.094 0.221-0.146 0.354-0.146h0.5v-13zM10 2c0-0.265-0.105-0.52-0.293-0.707s-0.442-0.293-0.707-0.293h-6c-0.265 0-0.52 0.105-0.707 0.293s-0.293 0.442-0.293 0.707v13h8v-13z"></path>
        </symbol>
        <symbol id="icon-grid" viewBox="0 0 16 16">
            <path d="M6 1h-5v14h5v-14zM15 1h-5v5h5v-5zM15 10v5h-5v-5h5zM0 1c0-0.265 0.105-0.52 0.293-0.707s0.442-0.293 0.707-0.293h5c0.265 0 0.52 0.105 0.707 0.293s0.293 0.442 0.293 0.707v14c0 0.265-0.105 0.52-0.293 0.707s-0.442 0.293-0.707 0.293h-5c-0.265 0-0.52-0.105-0.707-0.293s-0.293-0.442-0.293-0.707v-14zM9 1c0-0.265 0.105-0.52 0.293-0.707s0.442-0.293 0.707-0.293h5c0.265 0 0.52 0.105 0.707 0.293s0.293 0.442 0.293 0.707v5c0 0.265-0.105 0.52-0.293 0.707s-0.442 0.293-0.707 0.293h-5c-0.265 0-0.52-0.105-0.707-0.293s-0.293-0.442-0.293-0.707v-5zM10 9c-0.265 0-0.52 0.105-0.707 0.293s-0.293 0.442-0.293 0.707v5c0 0.265 0.105 0.52 0.293 0.707s0.442 0.293 0.707 0.293h5c0.265 0 0.52-0.105 0.707-0.293s0.293-0.442 0.293-0.707v-5c0-0.265-0.105-0.52-0.293-0.707s-0.442-0.293-0.707-0.293h-5z"></path>
        </symbol>
        <symbol id="icon-grid-2" viewBox="0 0 16 16">
            <path d="M0 1.714c0-0.455 0.181-0.891 0.502-1.212s0.758-0.502 1.212-0.502h3.429c0.455 0 0.891 0.181 1.212 0.502s0.502 0.758 0.502 1.212v3.429c0 0.455-0.181 0.891-0.502 1.212s-0.758 0.502-1.212 0.502h-3.429c-0.455 0-0.891-0.181-1.212-0.502s-0.502-0.758-0.502-1.212v-3.429zM1.714 1.143c-0.152 0-0.297 0.060-0.404 0.167s-0.167 0.253-0.167 0.404v3.429c0 0.152 0.060 0.297 0.167 0.404s0.253 0.167 0.404 0.167h3.429c0.152 0 0.297-0.060 0.404-0.167s0.167-0.253 0.167-0.404v-3.429c0-0.152-0.060-0.297-0.167-0.404s-0.253-0.167-0.404-0.167h-3.429zM9.143 1.714c0-0.455 0.181-0.891 0.502-1.212s0.758-0.502 1.212-0.502h3.429c0.455 0 0.891 0.181 1.212 0.502s0.502 0.758 0.502 1.212v3.429c0 0.455-0.181 0.891-0.502 1.212s-0.758 0.502-1.212 0.502h-3.429c-0.455 0-0.891-0.181-1.212-0.502s-0.502-0.758-0.502-1.212v-3.429zM10.857 1.143c-0.152 0-0.297 0.060-0.404 0.167s-0.167 0.253-0.167 0.404v3.429c0 0.152 0.060 0.297 0.167 0.404s0.253 0.167 0.404 0.167h3.429c0.152 0 0.297-0.060 0.404-0.167s0.167-0.253 0.167-0.404v-3.429c0-0.152-0.060-0.297-0.167-0.404s-0.253-0.167-0.404-0.167h-3.429zM0 10.857c0-0.455 0.181-0.891 0.502-1.212s0.758-0.502 1.212-0.502h3.429c0.455 0 0.891 0.181 1.212 0.502s0.502 0.758 0.502 1.212v3.429c0 0.455-0.181 0.891-0.502 1.212s-0.758 0.502-1.212 0.502h-3.429c-0.455 0-0.891-0.181-1.212-0.502s-0.502-0.758-0.502-1.212v-3.429zM1.714 10.286c-0.152 0-0.297 0.060-0.404 0.167s-0.167 0.253-0.167 0.404v3.429c0 0.152 0.060 0.297 0.167 0.404s0.253 0.167 0.404 0.167h3.429c0.152 0 0.297-0.060 0.404-0.167s0.167-0.253 0.167-0.404v-3.429c0-0.152-0.060-0.297-0.167-0.404s-0.253-0.167-0.404-0.167h-3.429zM9.143 10.857c0-0.455 0.181-0.891 0.502-1.212s0.758-0.502 1.212-0.502h3.429c0.455 0 0.891 0.181 1.212 0.502s0.502 0.758 0.502 1.212v3.429c0 0.455-0.181 0.891-0.502 1.212s-0.758 0.502-1.212 0.502h-3.429c-0.455 0-0.891-0.181-1.212-0.502s-0.502-0.758-0.502-1.212v-3.429zM10.857 10.286c-0.152 0-0.297 0.060-0.404 0.167s-0.167 0.253-0.167 0.404v3.429c0 0.152 0.060 0.297 0.167 0.404s0.253 0.167 0.404 0.167h3.429c0.152 0 0.297-0.060 0.404-0.167s0.167-0.253 0.167-0.404v-3.429c0-0.152-0.060-0.297-0.167-0.404s-0.253-0.167-0.404-0.167h-3.429z"></path>
        </symbol>
        <symbol id="icon-grid-3" viewBox="0 0 16 16">
            <path d="M3.429 1.143v2.286h-2.286v-2.286h2.286zM4.571 14.857v-2.286c0-0.303-0.12-0.594-0.335-0.808s-0.505-0.335-0.808-0.335h-2.286c-0.303 0-0.594 0.12-0.808 0.335s-0.335 0.505-0.335 0.808v2.286c0 0.303 0.12 0.594 0.335 0.808s0.505 0.335 0.808 0.335h2.286c0.303 0 0.594-0.12 0.808-0.335s0.335-0.505 0.335-0.808zM4.571 9.143v-2.286c0-0.303-0.12-0.594-0.335-0.808s-0.505-0.335-0.808-0.335h-2.286c-0.303 0-0.594 0.12-0.808 0.335s-0.335 0.505-0.335 0.808v2.286c0 0.303 0.12 0.594 0.335 0.808s0.505 0.335 0.808 0.335h2.286c0.303 0 0.594-0.12 0.808-0.335s0.335-0.505 0.335-0.808zM4.571 3.429v-2.286c0-0.303-0.12-0.594-0.335-0.808s-0.505-0.335-0.808-0.335h-2.286c-0.303 0-0.594 0.12-0.808 0.335s-0.335 0.505-0.335 0.808v2.286c0 0.303 0.12 0.594 0.335 0.808s0.505 0.335 0.808 0.335h2.286c0.303 0 0.594-0.12 0.808-0.335s0.335-0.505 0.335-0.808zM10.286 14.857v-2.286c0-0.303-0.12-0.594-0.335-0.808s-0.505-0.335-0.808-0.335h-2.286c-0.303 0-0.594 0.12-0.808 0.335s-0.335 0.505-0.335 0.808v2.286c0 0.303 0.12 0.594 0.335 0.808s0.505 0.335 0.808 0.335h2.286c0.303 0 0.594-0.12 0.808-0.335s0.335-0.505 0.335-0.808zM10.286 9.143v-2.286c0-0.303-0.12-0.594-0.335-0.808s-0.505-0.335-0.808-0.335h-2.286c-0.303 0-0.594 0.12-0.808 0.335s-0.335 0.505-0.335 0.808v2.286c0 0.303 0.12 0.594 0.335 0.808s0.505 0.335 0.808 0.335h2.286c0.303 0 0.594-0.12 0.808-0.335s0.335-0.505 0.335-0.808zM10.286 3.429v-2.286c0-0.303-0.12-0.594-0.335-0.808s-0.505-0.335-0.808-0.335h-2.286c-0.303 0-0.594 0.12-0.808 0.335s-0.335 0.505-0.335 0.808v2.286c0 0.303 0.12 0.594 0.335 0.808s0.505 0.335 0.808 0.335h2.286c0.303 0 0.594-0.12 0.808-0.335s0.335-0.505 0.335-0.808zM9.143 1.143v2.286h-2.286v-2.286h2.286zM14.857 1.143v2.286h-2.286v-2.286h2.286zM3.429 6.857v2.286h-2.286v-2.286h2.286zM9.143 6.857v2.286h-2.286v-2.286h2.286zM14.857 6.857h-2.286v2.286h2.286v-2.286zM3.429 12.571v2.286h-2.286v-2.286h2.286zM9.143 12.571v2.286h-2.286v-2.286h2.286zM14.857 12.571v2.286h-2.286v-2.286h2.286zM12.571 0c-0.303 0-0.594 0.12-0.808 0.335s-0.335 0.505-0.335 0.808v2.286c0 0.303 0.12 0.594 0.335 0.808s0.505 0.335 0.808 0.335h2.286c0.303 0 0.594-0.12 0.808-0.335s0.335-0.505 0.335-0.808v-2.286c0-0.303-0.12-0.594-0.335-0.808s-0.505-0.335-0.808-0.335h-2.286zM11.429 6.857c0-0.303 0.12-0.594 0.335-0.808s0.505-0.335 0.808-0.335h2.286c0.303 0 0.594 0.12 0.808 0.335s0.335 0.505 0.335 0.808v2.286c0 0.303-0.12 0.594-0.335 0.808s-0.505 0.335-0.808 0.335h-2.286c-0.303 0-0.594-0.12-0.808-0.335s-0.335-0.505-0.335-0.808v-2.286zM12.571 11.429c-0.303 0-0.594 0.12-0.808 0.335s-0.335 0.505-0.335 0.808v2.286c0 0.303 0.12 0.594 0.335 0.808s0.505 0.335 0.808 0.335h2.286c0.303 0 0.594-0.12 0.808-0.335s0.335-0.505 0.335-0.808v-2.286c0-0.303-0.12-0.594-0.335-0.808s-0.505-0.335-0.808-0.335h-2.286z"></path>
        </symbol>
        <symbol id="icon-heart-black" viewBox="0 0 18 16">
            <path d="M9.143 5.984l-1.022-2.045c-0.254-0.506-0.694-1.234-1.317-1.823-0.613-0.579-1.346-0.974-2.233-0.974-1.915 0-3.429 1.515-3.429 3.337 0 1.384 0.633 2.361 2.135 3.851 0.385 0.382 0.824 0.794 1.31 1.249 1.266 1.189 2.841 2.667 4.555 4.645 1.714-1.977 3.289-3.456 4.555-4.645 0.486-0.455 0.926-0.869 1.31-1.249 1.502-1.49 2.135-2.467 2.135-3.851 0-1.822-1.513-3.337-3.429-3.337-0.888 0-1.621 0.394-2.233 0.974-0.623 0.589-1.063 1.317-1.317 1.823l-1.022 2.045zM9.591 15.461c-0.055 0.065-0.124 0.118-0.201 0.154s-0.162 0.055-0.247 0.055-0.17-0.019-0.247-0.055c-0.077-0.036-0.146-0.088-0.201-0.154-1.83-2.174-3.486-3.728-4.849-5.007-2.36-2.216-3.846-3.609-3.846-5.974 0-2.474 2.046-4.48 4.571-4.48 1.829 0 3.107 1.2 3.89 2.295 0.297 0.417 0.523 0.818 0.681 1.134 0.198-0.395 0.426-0.774 0.681-1.134 0.783-1.096 2.062-2.295 3.89-2.295 2.526 0 4.571 2.006 4.571 4.48 0 2.365-1.486 3.758-3.846 5.974-1.363 1.28-3.019 2.835-4.849 5.007z"></path>
        </symbol>
        <symbol id="icon-heart-red" viewBox="0 0 18 16">
            <path fill="#e44848" style="fill: var(--color1, #e44848)" d="M9.143 5.984l-1.022-2.045c-0.254-0.506-0.694-1.234-1.317-1.823-0.613-0.579-1.346-0.974-2.233-0.974-1.915 0-3.429 1.515-3.429 3.337 0 1.384 0.633 2.361 2.135 3.851 0.385 0.382 0.824 0.794 1.31 1.249 1.266 1.189 2.841 2.667 4.555 4.645 1.714-1.977 3.289-3.456 4.555-4.645 0.486-0.455 0.926-0.869 1.31-1.249 1.502-1.49 2.135-2.467 2.135-3.851 0-1.822-1.513-3.337-3.429-3.337-0.888 0-1.621 0.394-2.233 0.974-0.623 0.589-1.063 1.317-1.317 1.823l-1.022 2.045zM9.591 15.461c-0.055 0.065-0.124 0.118-0.201 0.154s-0.162 0.055-0.247 0.055-0.17-0.019-0.247-0.055c-0.077-0.036-0.146-0.088-0.201-0.154-1.83-2.174-3.486-3.728-4.849-5.007-2.36-2.216-3.846-3.609-3.846-5.974 0-2.474 2.046-4.48 4.571-4.48 1.829 0 3.107 1.2 3.89 2.295 0.297 0.417 0.523 0.818 0.681 1.134 0.198-0.395 0.426-0.774 0.681-1.134 0.783-1.096 2.062-2.295 3.89-2.295 2.526 0 4.571 2.006 4.571 4.48 0 2.365-1.486 3.758-3.846 5.974-1.363 1.28-3.019 2.835-4.849 5.007z"></path>
        </symbol>
        <symbol id="icon-map-black" viewBox="0 0 16 16">
            <path d="M15.817 0.113c0.057 0.047 0.103 0.106 0.135 0.173s0.048 0.14 0.048 0.214v14c-0 0.116-0.040 0.228-0.113 0.317s-0.175 0.151-0.289 0.173l-5 1c-0.065 0.013-0.131 0.013-0.196 0l-4.902-0.98-4.902 0.98c-0.073 0.014-0.147 0.013-0.219-0.005s-0.139-0.052-0.196-0.098c-0.057-0.047-0.103-0.106-0.135-0.173s-0.048-0.14-0.048-0.214v-14c0-0.116 0.040-0.228 0.113-0.317s0.175-0.151 0.289-0.173l5-1c0.065-0.013 0.131-0.013 0.196 0l4.902 0.98 4.902-0.98c0.072-0.015 0.147-0.013 0.219 0.005s0.139 0.051 0.196 0.098zM10 1.91l-4-0.8v12.98l4 0.8v-12.98zM11 14.89l4-0.8v-12.98l-4 0.8v12.98zM5 14.090v-12.98l-4 0.8v12.98l4-0.8z"></path>
        </symbol>
        <symbol id="icon-map-gray" viewBox="0 0 16 16">
            <path fill="#6c717b" style="fill: var(--color2, #6c717b)" d="M15.817 0.113c0.057 0.047 0.103 0.106 0.135 0.173s0.048 0.14 0.048 0.214v14c-0 0.116-0.040 0.228-0.113 0.317s-0.175 0.151-0.289 0.173l-5 1c-0.065 0.013-0.131 0.013-0.196 0l-4.902-0.98-4.902 0.98c-0.073 0.014-0.147 0.013-0.219-0.005s-0.139-0.052-0.196-0.098c-0.057-0.047-0.103-0.106-0.135-0.173s-0.048-0.14-0.048-0.214v-14c0-0.116 0.040-0.228 0.113-0.317s0.175-0.151 0.289-0.173l5-1c0.065-0.013 0.131-0.013 0.196 0l4.902 0.98 4.902-0.98c0.072-0.015 0.147-0.013 0.219 0.005s0.139 0.051 0.196 0.098zM10 1.91l-4-0.8v12.98l4 0.8v-12.98zM11 14.89l4-0.8v-12.98l-4 0.8v12.98zM5 14.090v-12.98l-4 0.8v12.98l4-0.8z"></path>
        </symbol>
        <symbol id="icon-microwave" viewBox="0 0 19 16">
            <path stroke-linejoin="round" stroke-linecap="round" stroke-miterlimit="4" stroke-width="1.28" d="M16.427 0.853h-13.653c-0.943 0-1.707 0.764-1.707 1.707v9.387c0 0.943 0.764 1.707 1.707 1.707h13.653c0.943 0 1.707-0.764 1.707-1.707v-9.387c0-0.943-0.764-1.707-1.707-1.707z"></path>
            <path stroke-linejoin="round" stroke-linecap="round" stroke-miterlimit="4" stroke-width="1.28" d="M10.453 4.267h-5.12c-0.471 0-0.853 0.382-0.853 0.853v4.267c0 0.471 0.382 0.853 0.853 0.853h5.12c0.471 0 0.853-0.382 0.853-0.853v-4.267c0-0.471-0.382-0.853-0.853-0.853z"></path>
            <path stroke-linejoin="round" stroke-linecap="round" stroke-miterlimit="4" stroke-width="1.28" d="M14.72 4.267v5.973M4.48 13.653v1.707M14.72 13.653v1.707"></path>
        </symbol>
        <symbol id="icon-radio" viewBox="0 0 17 16">
            <path d="M7.778 1.889c0-0.147 0.059-0.289 0.163-0.393s0.245-0.163 0.393-0.163h7.778c0.147 0 0.289 0.059 0.393 0.163s0.163 0.246 0.163 0.393v1.111c0 0.147-0.058 0.289-0.163 0.393s-0.245 0.163-0.393 0.163h-7.778c-0.147 0-0.289-0.059-0.393-0.163s-0.163-0.245-0.163-0.393v-1.111zM0 12.444c0-0.884 0.351-1.732 0.976-2.357s1.473-0.976 2.357-0.976 1.732 0.351 2.357 0.976c0.625 0.625 0.976 1.473 0.976 2.357s-0.351 1.732-0.976 2.357c-0.625 0.625-1.473 0.976-2.357 0.976s-1.732-0.351-2.357-0.976c-0.625-0.625-0.976-1.473-0.976-2.357zM7.778 10.778c0-0.147 0.059-0.289 0.163-0.393s0.245-0.163 0.393-0.163h7.778c0.147 0 0.289 0.058 0.393 0.163s0.163 0.245 0.163 0.393v1.111c0 0.147-0.058 0.289-0.163 0.393s-0.245 0.163-0.393 0.163h-7.778c-0.147 0-0.289-0.058-0.393-0.163s-0.163-0.245-0.163-0.393v-1.111zM7.778 5.222c0-0.147 0.059-0.289 0.163-0.393s0.245-0.163 0.393-0.163h5.556c0.147 0 0.289 0.059 0.393 0.163s0.163 0.245 0.163 0.393-0.058 0.289-0.163 0.393c-0.104 0.104-0.245 0.163-0.393 0.163h-5.556c-0.147 0-0.289-0.059-0.393-0.163s-0.163-0.245-0.163-0.393zM7.778 14.111c0-0.147 0.059-0.289 0.163-0.393s0.245-0.163 0.393-0.163h5.556c0.147 0 0.289 0.058 0.393 0.163s0.163 0.245 0.163 0.393-0.058 0.289-0.163 0.393c-0.104 0.104-0.245 0.163-0.393 0.163h-5.556c-0.147 0-0.289-0.058-0.393-0.163s-0.163-0.245-0.163-0.393zM3.333 0.222c-0.438 0-0.871 0.086-1.276 0.254s-0.772 0.413-1.081 0.723c-0.31 0.31-0.555 0.677-0.723 1.081s-0.254 0.838-0.254 1.276c0 0.438 0.086 0.871 0.254 1.276s0.413 0.772 0.723 1.081c0.31 0.31 0.677 0.555 1.081 0.723s0.838 0.254 1.276 0.254c0.884 0 1.732-0.351 2.357-0.976s0.976-1.473 0.976-2.357c0-0.884-0.351-1.732-0.976-2.357s-1.473-0.976-2.357-0.976zM3.333 5.222c-0.442 0-0.866-0.176-1.179-0.488s-0.488-0.736-0.488-1.179c0-0.442 0.176-0.866 0.488-1.179s0.736-0.488 1.179-0.488c0.442 0 0.866 0.176 1.179 0.488s0.488 0.736 0.488 1.179c0 0.442-0.176 0.866-0.488 1.179s-0.736 0.488-1.179 0.488z"></path>
        </symbol>
        <symbol id="icon-shower" viewBox="0 0 18 16">
            <path d="M4.148 15.111c0 0.176-0.052 0.348-0.15 0.494s-0.236 0.26-0.399 0.327-0.341 0.085-0.514 0.051c-0.172-0.034-0.331-0.119-0.455-0.243s-0.209-0.283-0.243-0.455c-0.034-0.172-0.017-0.351 0.051-0.514s0.181-0.301 0.327-0.399c0.146-0.098 0.318-0.15 0.494-0.15 0.236 0 0.462 0.094 0.629 0.26s0.26 0.393 0.26 0.629zM5.63 11.852c-0.176 0-0.348 0.052-0.494 0.15s-0.26 0.236-0.327 0.399c-0.067 0.162-0.085 0.341-0.051 0.514s0.119 0.331 0.243 0.455c0.124 0.124 0.283 0.209 0.455 0.243s0.351 0.017 0.514-0.051c0.162-0.067 0.301-0.181 0.399-0.327s0.15-0.318 0.15-0.494c0-0.236-0.094-0.462-0.26-0.629s-0.393-0.26-0.629-0.26zM0.889 11.852c-0.176 0-0.348 0.052-0.494 0.15s-0.26 0.236-0.327 0.399c-0.067 0.162-0.085 0.341-0.051 0.514s0.119 0.331 0.243 0.455c0.124 0.124 0.283 0.209 0.455 0.243s0.351 0.017 0.514-0.051c0.162-0.067 0.301-0.181 0.399-0.327s0.15-0.318 0.15-0.494c0-0.236-0.094-0.462-0.26-0.629s-0.393-0.26-0.629-0.26zM3.259 9.481c-0.176 0-0.348 0.052-0.494 0.15s-0.26 0.236-0.327 0.399c-0.067 0.162-0.085 0.341-0.051 0.514s0.119 0.331 0.243 0.455c0.124 0.124 0.283 0.209 0.455 0.243s0.351 0.017 0.514-0.051c0.162-0.067 0.301-0.181 0.399-0.327s0.15-0.318 0.15-0.494c0-0.236-0.094-0.462-0.26-0.629s-0.393-0.26-0.629-0.26zM18.37 0.593c0 0.157-0.062 0.308-0.174 0.419s-0.262 0.174-0.419 0.174h-2.125l-2.063 2.064-1.604 9.392c-0.036 0.215-0.131 0.415-0.273 0.579s-0.328 0.286-0.535 0.353c-0.207 0.066-0.429 0.074-0.64 0.023s-0.405-0.16-0.559-0.314l-7.259-7.259c-0.154-0.154-0.263-0.347-0.314-0.559s-0.043-0.433 0.023-0.641c0.067-0.207 0.189-0.393 0.354-0.535s0.366-0.237 0.581-0.272l9.388-1.605 2.237-2.237c0.055-0.055 0.12-0.099 0.192-0.128s0.149-0.045 0.227-0.045h2.37c0.157 0 0.308 0.062 0.419 0.174s0.174 0.262 0.174 0.419zM12.312 3.688l-8.756 1.497 7.259 7.259 1.497-8.756z"></path>
        </symbol>
        <symbol id="icon-star-gold" viewBox="0 0 17 16">
            <path fill="#ffc531" style="fill: var(--color3, #ffc531)" d="M8.062 0.894c0.2-0.379 0.743-0.379 0.943 0l2.014 3.817c0.077 0.146 0.218 0.248 0.381 0.277l4.253 0.736c0.422 0.073 0.59 0.59 0.292 0.897l-3.008 3.095c-0.115 0.119-0.169 0.284-0.145 0.448l0.614 4.272c0.061 0.424-0.378 0.744-0.763 0.555l-3.873-1.905c-0.148-0.073-0.322-0.073-0.471 0l-3.873 1.905c-0.385 0.189-0.824-0.13-0.763-0.555l0.614-4.272c0.024-0.164-0.030-0.329-0.145-0.448l-3.008-3.095c-0.299-0.308-0.131-0.824 0.292-0.897l4.253-0.736c0.163-0.028 0.304-0.13 0.381-0.277l2.014-3.817z"></path>
        </symbol>
        <symbol id="icon-star-gray" viewBox="0 0 17 16">
            <path fill="#f2f4f7" style="fill: var(--color4, #f2f4f7)" d="M8.062 0.894c0.2-0.379 0.743-0.379 0.943 0l2.014 3.817c0.077 0.146 0.218 0.248 0.381 0.277l4.253 0.736c0.422 0.073 0.59 0.59 0.292 0.897l-3.008 3.095c-0.115 0.119-0.169 0.284-0.145 0.448l0.614 4.272c0.061 0.424-0.378 0.744-0.763 0.555l-3.873-1.905c-0.148-0.073-0.322-0.073-0.471 0l-3.873 1.905c-0.385 0.189-0.824-0.13-0.763-0.555l0.614-4.272c0.024-0.164-0.030-0.329-0.145-0.448l-3.008-3.095c-0.299-0.308-0.131-0.824 0.292-0.897l4.253-0.736c0.163-0.028 0.304-0.13 0.381-0.277l2.014-3.817z"></path>
        </symbol>
        <symbol id="icon-stove" viewBox="0 0 16 16">
            <path stroke-linejoin="round" stroke-linecap="round" stroke-miterlimit="4" stroke-width="1.28" d="M3.733 12.978h2.844M12.267 12.984v-0.006M0.889 3.733c0-2.354 0.491-2.844 2.844-2.844h8.533c2.354 0 2.844 0.491 2.844 2.844v8.533c0 2.354-0.491 2.844-2.844 2.844h-8.533c-2.354 0-2.844-0.491-2.844-2.844v-8.533z"></path>
            <path stroke-linejoin="round" stroke-linecap="round" stroke-miterlimit="4" stroke-width="1.28" d="M8 9.422c1.571 0 2.844-1.274 2.844-2.844s-1.274-2.844-2.844-2.844-2.844 1.274-2.844 2.844c0 1.571 1.274 2.844 2.844 2.844z"></path>
            <path stroke-linejoin="round" stroke-linecap="round" stroke-miterlimit="4" stroke-width="1.28" d="M10.489 6.578h1.067M8 9.067v1.067M5.511 6.578h-1.067M8 4.089v-1.067"></path>
        </symbol>
        <symbol id="icon-tv" viewBox="0 0 20 16">
            <path d="M0 2.56c0 0 0-2.56 2.56-2.56h15.36c0 0 2.56 0 2.56 2.56v7.68c0 0 0 2.56-2.56 2.56h-5.12c0 0.853 0.107 1.493 0.32 1.92h0.96c0.17 0 0.333 0.067 0.453 0.187s0.187 0.283 0.187 0.453c0 0.17-0.067 0.333-0.187 0.453s-0.283 0.187-0.453 0.187h-7.68c-0.17 0-0.333-0.067-0.453-0.187s-0.187-0.283-0.187-0.453c0-0.17 0.067-0.333 0.187-0.453s0.283-0.187 0.453-0.187h0.96c0.213-0.427 0.32-1.067 0.32-1.92h-5.12c0 0-2.56 0-2.56-2.56v-7.68zM1.789 1.466c-0.141 0.098-0.253 0.231-0.325 0.387-0.108 0.226-0.17 0.471-0.184 0.721v7.667c0 0.416 0.1 0.643 0.186 0.771 0.090 0.133 0.218 0.241 0.387 0.325 0.216 0.103 0.45 0.165 0.689 0.183l0.032 0.001h15.347c0.416 0 0.643-0.1 0.771-0.186 0.141-0.098 0.253-0.231 0.325-0.387 0.103-0.216 0.166-0.45 0.183-0.689l0.001-0.032v-7.667c0-0.416-0.1-0.643-0.186-0.771-0.098-0.141-0.231-0.253-0.387-0.325-0.226-0.108-0.471-0.17-0.721-0.184h-15.347c-0.416 0-0.643 0.1-0.771 0.186z"></path>
        </symbol>
        <symbol id="icon-water" viewBox="0 0 11 16">
            <path stroke-linejoin="miter" stroke-linecap="butt" stroke-miterlimit="10" stroke-width="1.0667" d="M10.133 9.6c0 2.946-1.854 4.8-4.8 4.8s-4.8-1.854-4.8-4.8c0-3.161 3.441-7.428 4.496-8.663 0.038-0.044 0.084-0.079 0.137-0.103s0.109-0.037 0.167-0.037c0.058 0 0.115 0.012 0.167 0.037s0.099 0.059 0.137 0.103c1.055 1.234 4.496 5.502 4.496 8.663z"></path>
            <path stroke-linejoin="round" stroke-linecap="round" stroke-miterlimit="4" stroke-width="1.0667" d="M8.267 15.2c0 0.637-0.253 1.247-0.703 1.697s-1.061 0.703-1.697 0.703"></path>
        </symbol>
        <symbol id="icon-wind" viewBox="0 0 18 16">
            <path d="M14.286 1.143c-0.758 0-1.485 0.301-2.020 0.837s-0.837 1.263-0.837 2.020c0 0.152-0.060 0.297-0.167 0.404s-0.253 0.167-0.404 0.167c-0.152 0-0.297-0.060-0.404-0.167s-0.167-0.253-0.167-0.404c0-0.791 0.235-1.564 0.674-2.222s1.064-1.17 1.795-1.473c0.731-0.303 1.535-0.382 2.311-0.228s1.489 0.535 2.048 1.095c0.559 0.559 0.94 1.272 1.095 2.048s0.075 1.58-0.228 2.311c-0.303 0.731-0.815 1.356-1.473 1.795s-1.431 0.674-2.222 0.674h-13.714c-0.152 0-0.297-0.060-0.404-0.167s-0.167-0.253-0.167-0.404c0-0.152 0.060-0.297 0.167-0.404s0.253-0.167 0.404-0.167h13.714c0.758 0 1.485-0.301 2.020-0.837s0.837-1.263 0.837-2.020-0.301-1.484-0.837-2.020c-0.536-0.536-1.263-0.837-2.020-0.837zM6.286 2.286c-0.303 0-0.594 0.12-0.808 0.335s-0.335 0.505-0.335 0.808c0 0.152-0.060 0.297-0.167 0.404s-0.253 0.167-0.404 0.167c-0.152 0-0.297-0.060-0.404-0.167s-0.167-0.253-0.167-0.404c0-0.452 0.134-0.894 0.385-1.27s0.608-0.669 1.026-0.842c0.418-0.173 0.877-0.218 1.321-0.13s0.851 0.306 1.17 0.626 0.537 0.727 0.626 1.17c0.088 0.443 0.043 0.903-0.13 1.321s-0.466 0.775-0.842 1.026-0.818 0.385-1.27 0.385h-5.714c-0.152 0-0.297-0.060-0.404-0.167s-0.167-0.253-0.167-0.404c0-0.152 0.060-0.297 0.167-0.404s0.253-0.167 0.404-0.167h5.714c0.303 0 0.594-0.12 0.808-0.335s0.335-0.505 0.335-0.808c0-0.303-0.12-0.594-0.335-0.808s-0.505-0.335-0.808-0.335zM0 9.714c0-0.152 0.060-0.297 0.167-0.404s0.253-0.167 0.404-0.167h11.477c0.678 0 1.341 0.201 1.905 0.578s1.003 0.912 1.263 1.539c0.259 0.627 0.327 1.316 0.195 1.981s-0.459 1.276-0.938 1.755c-0.479 0.48-1.090 0.806-1.755 0.938s-1.354 0.064-1.981-0.195-1.162-0.699-1.539-1.263c-0.377-0.564-0.578-1.227-0.578-1.905 0-0.152 0.060-0.297 0.167-0.404s0.253-0.167 0.404-0.167c0.152 0 0.297 0.060 0.404 0.167s0.167 0.253 0.167 0.404c0 0.452 0.134 0.894 0.385 1.27s0.608 0.669 1.026 0.842c0.418 0.173 0.877 0.218 1.321 0.13s0.851-0.306 1.17-0.626 0.537-0.727 0.626-1.17c0.088-0.443 0.043-0.903-0.13-1.321s-0.466-0.775-0.842-1.026c-0.376-0.251-0.818-0.385-1.27-0.385h-11.477c-0.152 0-0.297-0.060-0.404-0.167s-0.167-0.253-0.167-0.404z"></path>
        </symbol>
    </defs>
</svg>
